<svg width="1523" height="1024" viewBox="0 0 1523 1024" fill="none" xmlns="http://www.w3.org/2000/svg">
<g clip-path="url(#clip0_41_10)">
<rect width="1523" height="1024" fill="#FDECC1"/>
<g filter="url(#filter0_d_41_10)">
<path d="M-7.6523 273.104C-21.2443 268.511 -26.8738 252.347 -19.0753 240.304L92.2462 68.3991C102.197 53.0328 125.468 55.8334 131.489 73.1219L214.19 310.593C220.211 327.882 203.714 344.532 186.37 338.671L-7.6523 273.104Z" fill="#EC8E00"/>
</g>
<g filter="url(#filter1_d_41_10)">
<path d="M440.993 1082.76C427.952 1088.72 412.786 1080.81 410.209 1066.71L367.554 833.335C364.262 815.321 383.132 801.405 399.368 809.873L657.806 944.652C674.043 953.12 673.432 976.559 656.776 984.169L440.993 1082.76Z" fill="#FBBC05"/>
</g>
<path opacity="0.34" d="M1440.21 79.1178C1436.39 75.5722 1436.37 69.5345 1440.16 65.9651L1484.33 24.4439C1490.06 19.0521 1499.47 23.1014 1499.49 30.9729L1499.75 113.738C1499.78 121.61 1490.4 125.718 1484.63 120.362L1440.21 79.1178Z" fill="#FBBC05"/>
<path opacity="0.34" d="M1440.21 79.1178C1436.39 75.5722 1436.37 69.5345 1440.16 65.9651L1484.33 24.4439C1490.06 19.0521 1499.47 23.1014 1499.49 30.9729L1499.75 113.738C1499.78 121.61 1490.4 125.718 1484.63 120.362L1440.21 79.1178Z" fill="#FBBC05"/>
<path opacity="0.34" d="M1427.21 79.2421C1423.39 75.6965 1423.37 69.6588 1427.16 66.0894L1471.33 24.5682C1477.06 19.1764 1486.47 23.2257 1486.49 31.0972L1486.75 113.862C1486.78 121.734 1477.4 125.842 1471.63 120.486L1427.21 79.2421Z" fill="#FBBC05"/>
<path opacity="0.34" d="M1410.21 79.4046C1406.39 75.859 1406.37 69.8213 1410.17 66.2519L1454.33 24.7308C1460.06 19.339 1469.47 23.3882 1469.49 31.2598L1469.75 114.025C1469.78 121.896 1460.4 126.004 1454.63 120.649L1410.21 79.4046Z" fill="#FBBC05"/>
<g filter="url(#filter2_d_41_10)">
<path d="M1217.28 985.98C1134.43 926.183 1116.79 809.096 1177.88 724.457C1238.97 639.819 1355.65 619.68 1438.5 679.476C1521.35 739.273 1538.99 856.36 1477.9 940.999C1416.81 1025.64 1300.12 1045.78 1217.28 985.98Z" fill="#FBBC05"/>
</g>
</g>
<defs>
<filter id="filter0_d_41_10" x="-22.6194" y="54.3532" width="260.074" height="301.516" filterUnits="userSpaceOnUse" color-interpolation-filters="sRGB">
<feFlood flood-opacity="0" result="BackgroundImageFix"/>
<feColorMatrix in="SourceAlpha" type="matrix" values="0 0 0 0 0 0 0 0 0 0 0 0 0 0 0 0 0 0 127 0" result="hardAlpha"/>
<feOffset dx="12" dy="6"/>
<feGaussianBlur stdDeviation="5"/>
<feComposite in2="hardAlpha" operator="out"/>
<feColorMatrix type="matrix" values="0 0 0 0 0 0 0 0 0 0 0 0 0 0 0 0 0 0 0.25 0"/>
<feBlend mode="normal" in2="BackgroundImageFix" result="effect1_dropShadow_41_10"/>
<feBlend mode="normal" in="SourceGraphic" in2="effect1_dropShadow_41_10" result="shape"/>
</filter>
<filter id="filter1_d_41_10" x="362.176" y="807.329" width="322.457" height="299.44" filterUnits="userSpaceOnUse" color-interpolation-filters="sRGB">
<feFlood flood-opacity="0" result="BackgroundImageFix"/>
<feColorMatrix in="SourceAlpha" type="matrix" values="0 0 0 0 0 0 0 0 0 0 0 0 0 0 0 0 0 0 127 0" result="hardAlpha"/>
<feOffset dx="5" dy="12"/>
<feGaussianBlur stdDeviation="5"/>
<feComposite in2="hardAlpha" operator="out"/>
<feColorMatrix type="matrix" values="0 0 0 0 0 0 0 0 0 0 0 0 0 0 0 0 0 0 0.25 0"/>
<feBlend mode="normal" in2="BackgroundImageFix" result="effect1_dropShadow_41_10"/>
<feBlend mode="normal" in="SourceGraphic" in2="effect1_dropShadow_41_10" result="shape"/>
</filter>
<filter id="filter2_d_41_10" x="1141.5" y="645.073" width="394.784" height="400.31" filterUnits="userSpaceOnUse" color-interpolation-filters="sRGB">
<feFlood flood-opacity="0" result="BackgroundImageFix"/>
<feColorMatrix in="SourceAlpha" type="matrix" values="0 0 0 0 0 0 0 0 0 0 0 0 0 0 0 0 0 0 127 0" result="hardAlpha"/>
<feOffset dx="11" dy="14"/>
<feGaussianBlur stdDeviation="5.5"/>
<feComposite in2="hardAlpha" operator="out"/>
<feColorMatrix type="matrix" values="0 0 0 0 0 0 0 0 0 0 0 0 0 0 0 0 0 0 0.24 0"/>
<feBlend mode="normal" in2="BackgroundImageFix" result="effect1_dropShadow_41_10"/>
<feBlend mode="normal" in="SourceGraphic" in2="effect1_dropShadow_41_10" result="shape"/>
</filter>
<clipPath id="clip0_41_10">
<rect width="1523" height="1024" fill="white"/>
</clipPath>
</defs>
</svg>
